<mxfile host="app.diagrams.net" modified="2023-06-19T06:24:58.539Z" agent="Mozilla/5.0 (Windows NT 10.0; Win64; x64) AppleWebKit/537.36 (KHTML, like Gecko) Chrome/114.0.0.0 Safari/537.36" etag="D1lH22EamjNaTddIVu0w" version="21.3.8" type="device">
  <diagram name="Page-1" id="coTb58oGFBqFOava9dlc">
    <mxGraphModel dx="911" dy="470" grid="1" gridSize="10" guides="1" tooltips="1" connect="1" arrows="1" fold="1" page="1" pageScale="1" pageWidth="850" pageHeight="1100" math="0" shadow="0">
      <root>
        <mxCell id="0" />
        <mxCell id="1" parent="0" />
        <mxCell id="YCwGA8IyKye3bmhu1bEr-18" value="" style="rounded=1;whiteSpace=wrap;html=1;fontFamily=Courier New;dashed=1;fillColor=none;arcSize=9;" parent="1" vertex="1">
          <mxGeometry x="340" y="150" width="400" height="150" as="geometry" />
        </mxCell>
        <mxCell id="aaNtJ43LO58r2Ts1qUXv-3" value="ut_setup" style="rounded=1;whiteSpace=wrap;html=1;fontFamily=Courier New;" parent="1" vertex="1">
          <mxGeometry x="120" y="40" width="120" height="40" as="geometry" />
        </mxCell>
        <mxCell id="aaNtJ43LO58r2Ts1qUXv-4" value="&lt;font style=&quot;font-size: 11px;&quot;&gt;Initialize the framework&lt;/font&gt;" style="text;html=1;strokeColor=none;fillColor=none;align=left;verticalAlign=middle;whiteSpace=wrap;rounded=0;fontStyle=0;fontFamily=Permanent Marker;fontSource=https%3A%2F%2Ffonts.googleapis.com%2Fcss%3Ffamily%3DPermanent%2BMarker;" parent="1" vertex="1">
          <mxGeometry x="250" y="40" width="160" height="40" as="geometry" />
        </mxCell>
        <mxCell id="aaNtJ43LO58r2Ts1qUXv-7" value="ut_grp_init" style="rounded=1;whiteSpace=wrap;html=1;fontFamily=Courier New;" parent="1" vertex="1">
          <mxGeometry x="240" y="100" width="120" height="40" as="geometry" />
        </mxCell>
        <mxCell id="aaNtJ43LO58r2Ts1qUXv-8" value="&lt;font style=&quot;font-size: 11px;&quot;&gt;Create a testing group&lt;br&gt;&lt;/font&gt;" style="text;html=1;strokeColor=none;fillColor=none;align=left;verticalAlign=middle;whiteSpace=wrap;rounded=0;fontStyle=0;fontFamily=Permanent Marker;fontSource=https%3A%2F%2Ffonts.googleapis.com%2Fcss%3Ffamily%3DPermanent%2BMarker;" parent="1" vertex="1">
          <mxGeometry x="369.35" y="100" width="280" height="40" as="geometry" />
        </mxCell>
        <mxCell id="aaNtJ43LO58r2Ts1qUXv-9" value="" style="curved=1;endArrow=classic;html=1;rounded=0;dashed=1;" parent="1" edge="1">
          <mxGeometry width="50" height="50" relative="1" as="geometry">
            <mxPoint x="250" y="140" as="sourcePoint" />
            <mxPoint x="240" y="130" as="targetPoint" />
            <Array as="points">
              <mxPoint x="250" y="150" />
              <mxPoint x="220" y="150" />
              <mxPoint x="220" y="130" />
            </Array>
          </mxGeometry>
        </mxCell>
        <mxCell id="Y-oukTqcoRSDskNC7D8d-2" value="Create as many &lt;br&gt;groups as needed" style="edgeLabel;html=1;align=center;verticalAlign=middle;resizable=0;points=[];fontFamily=Permanent Marker;fontSource=https%3A%2F%2Ffonts.googleapis.com%2Fcss%3Ffamily%3DPermanent%2BMarker;" parent="aaNtJ43LO58r2Ts1qUXv-9" vertex="1" connectable="0">
          <mxGeometry x="-0.0144" y="-4" relative="1" as="geometry">
            <mxPoint x="-51" y="4" as="offset" />
          </mxGeometry>
        </mxCell>
        <mxCell id="Y-oukTqcoRSDskNC7D8d-8" value="ut_run" style="rounded=1;whiteSpace=wrap;html=1;fontFamily=Courier New;" parent="1" vertex="1">
          <mxGeometry x="380" y="160" width="120" height="40" as="geometry" />
        </mxCell>
        <mxCell id="Y-oukTqcoRSDskNC7D8d-11" value="&lt;font size=&quot;1&quot;&gt;&lt;div style=&quot;font-size: 11px;&quot;&gt;Run code in a &quot;safe&quot; environment&lt;/div&gt;&lt;/font&gt;" style="text;html=1;strokeColor=none;fillColor=none;align=left;verticalAlign=middle;whiteSpace=wrap;rounded=0;fontStyle=0;fontFamily=Permanent Marker;fontSource=https%3A%2F%2Ffonts.googleapis.com%2Fcss%3Ffamily%3DPermanent%2BMarker;" parent="1" vertex="1">
          <mxGeometry x="540" y="160" width="170" height="40" as="geometry" />
        </mxCell>
        <mxCell id="Y-oukTqcoRSDskNC7D8d-12" value="ut_assert_xxx" style="rounded=1;whiteSpace=wrap;html=1;fontFamily=Courier New;" parent="1" vertex="1">
          <mxGeometry x="480" y="220" width="120" height="40" as="geometry" />
        </mxCell>
        <mxCell id="Y-oukTqcoRSDskNC7D8d-15" value="&lt;font style=&quot;&quot;&gt;&lt;font style=&quot;font-size: 11px;&quot;&gt;Perform test&lt;/font&gt;&lt;br&gt;&lt;/font&gt;" style="text;html=1;strokeColor=none;fillColor=none;align=left;verticalAlign=middle;whiteSpace=wrap;rounded=0;fontStyle=0;fontFamily=Permanent Marker;fontSource=https%3A%2F%2Ffonts.googleapis.com%2Fcss%3Ffamily%3DPermanent%2BMarker;" parent="1" vertex="1">
          <mxGeometry x="610" y="220" width="120" height="40" as="geometry" />
        </mxCell>
        <mxCell id="Y-oukTqcoRSDskNC7D8d-19" value="ut_report" style="rounded=1;whiteSpace=wrap;html=1;fontFamily=Courier New;" parent="1" vertex="1">
          <mxGeometry x="120" y="420" width="120" height="40" as="geometry" />
        </mxCell>
        <mxCell id="Y-oukTqcoRSDskNC7D8d-21" value="&lt;font style=&quot;font-size: 11px;&quot;&gt;Generate report&lt;br&gt;&lt;/font&gt;" style="text;html=1;strokeColor=none;fillColor=none;align=left;verticalAlign=middle;whiteSpace=wrap;rounded=0;fontStyle=0;fontFamily=Permanent Marker;fontSource=https%3A%2F%2Ffonts.googleapis.com%2Fcss%3Ffamily%3DPermanent%2BMarker;" parent="1" vertex="1">
          <mxGeometry x="250.00000000000003" y="420" width="280" height="40" as="geometry" />
        </mxCell>
        <mxCell id="UV7nVRtZOCS6IpgAKnlo-2" value="" style="edgeStyle=orthogonalEdgeStyle;elbow=vertical;endArrow=classic;html=1;curved=1;rounded=0;endSize=8;startSize=8;exitX=0.5;exitY=1;exitDx=0;exitDy=0;entryX=0;entryY=0.5;entryDx=0;entryDy=0;" parent="1" source="aaNtJ43LO58r2Ts1qUXv-3" target="aaNtJ43LO58r2Ts1qUXv-7" edge="1">
          <mxGeometry width="50" height="50" relative="1" as="geometry">
            <mxPoint x="580" y="340" as="sourcePoint" />
            <mxPoint x="630" y="290" as="targetPoint" />
          </mxGeometry>
        </mxCell>
        <mxCell id="UV7nVRtZOCS6IpgAKnlo-3" value="" style="edgeStyle=orthogonalEdgeStyle;elbow=vertical;endArrow=classic;html=1;rounded=0;endSize=8;startSize=8;curved=1;exitX=0.5;exitY=1;exitDx=0;exitDy=0;entryX=0;entryY=0.5;entryDx=0;entryDy=0;" parent="1" source="aaNtJ43LO58r2Ts1qUXv-7" target="Y-oukTqcoRSDskNC7D8d-8" edge="1">
          <mxGeometry width="50" height="50" relative="1" as="geometry">
            <mxPoint x="310" y="140" as="sourcePoint" />
            <mxPoint x="360" y="180" as="targetPoint" />
            <Array as="points">
              <mxPoint x="300" y="180" />
            </Array>
          </mxGeometry>
        </mxCell>
        <mxCell id="UV7nVRtZOCS6IpgAKnlo-7" value="" style="edgeStyle=orthogonalEdgeStyle;elbow=vertical;endArrow=classic;html=1;curved=1;rounded=0;endSize=8;startSize=8;exitX=0.5;exitY=1;exitDx=0;exitDy=0;entryX=0.5;entryY=0;entryDx=0;entryDy=0;" parent="1" source="Y-oukTqcoRSDskNC7D8d-12" target="Y-oukTqcoRSDskNC7D8d-19" edge="1">
          <mxGeometry width="50" height="50" relative="1" as="geometry">
            <mxPoint x="430" y="330" as="sourcePoint" />
            <mxPoint x="349" y="370" as="targetPoint" />
            <Array as="points">
              <mxPoint x="540" y="370" />
              <mxPoint x="180" y="370" />
            </Array>
          </mxGeometry>
        </mxCell>
        <mxCell id="UV7nVRtZOCS6IpgAKnlo-13" value="" style="curved=1;endArrow=classic;html=1;rounded=0;dashed=1;" parent="1" edge="1">
          <mxGeometry width="50" height="50" relative="1" as="geometry">
            <mxPoint x="490" y="260" as="sourcePoint" />
            <mxPoint x="480" y="250" as="targetPoint" />
            <Array as="points">
              <mxPoint x="490" y="270" />
              <mxPoint x="460" y="270" />
              <mxPoint x="460" y="250" />
            </Array>
          </mxGeometry>
        </mxCell>
        <mxCell id="UV7nVRtZOCS6IpgAKnlo-14" value="&lt;font style=&quot;font-size: 11px;&quot;&gt;Use as many&lt;br style=&quot;border-color: var(--border-color);&quot;&gt;asserts as needed&lt;/font&gt;" style="edgeLabel;html=1;align=center;verticalAlign=middle;resizable=0;points=[];fontFamily=Permanent Marker;fontSource=https%3A%2F%2Ffonts.googleapis.com%2Fcss%3Ffamily%3DPermanent%2BMarker;" parent="UV7nVRtZOCS6IpgAKnlo-13" vertex="1" connectable="0">
          <mxGeometry x="-0.0144" y="-4" relative="1" as="geometry">
            <mxPoint x="-51" y="4" as="offset" />
          </mxGeometry>
        </mxCell>
        <mxCell id="UV7nVRtZOCS6IpgAKnlo-16" value="" style="edgeStyle=orthogonalEdgeStyle;elbow=vertical;endArrow=classic;html=1;curved=1;rounded=0;endSize=8;startSize=8;exitX=1;exitY=0.5;exitDx=0;exitDy=0;entryX=0.5;entryY=0;entryDx=0;entryDy=0;" parent="1" source="Y-oukTqcoRSDskNC7D8d-8" target="Y-oukTqcoRSDskNC7D8d-12" edge="1">
          <mxGeometry width="50" height="50" relative="1" as="geometry">
            <mxPoint x="310" y="150" as="sourcePoint" />
            <mxPoint x="480" y="240" as="targetPoint" />
            <Array as="points">
              <mxPoint x="540" y="180" />
            </Array>
          </mxGeometry>
        </mxCell>
        <mxCell id="YCwGA8IyKye3bmhu1bEr-4" value="&lt;font style=&quot;font-size: 11px;&quot;&gt;Create a test&lt;br&gt;&lt;/font&gt;" style="text;html=1;strokeColor=none;fillColor=none;align=left;verticalAlign=middle;whiteSpace=wrap;rounded=0;fontStyle=0;fontFamily=Permanent Marker;fontSource=https%3A%2F%2Ffonts.googleapis.com%2Fcss%3Ffamily%3DPermanent%2BMarker;" parent="1" vertex="1">
          <mxGeometry x="750" y="150" width="280" height="40" as="geometry" />
        </mxCell>
        <mxCell id="YCwGA8IyKye3bmhu1bEr-5" value="" style="curved=1;endArrow=classic;html=1;rounded=0;dashed=1;" parent="1" edge="1">
          <mxGeometry width="50" height="50" relative="1" as="geometry">
            <mxPoint x="349.30999999999995" y="300" as="sourcePoint" />
            <mxPoint x="339.30999999999995" y="290" as="targetPoint" />
            <Array as="points">
              <mxPoint x="349.30999999999995" y="310" />
              <mxPoint x="319.30999999999995" y="310" />
              <mxPoint x="319.30999999999995" y="290" />
            </Array>
          </mxGeometry>
        </mxCell>
        <mxCell id="YCwGA8IyKye3bmhu1bEr-6" value="Create as many&lt;br style=&quot;border-color: var(--border-color);&quot;&gt;tests as needed" style="edgeLabel;html=1;align=center;verticalAlign=middle;resizable=0;points=[];fontFamily=Permanent Marker;fontSource=https%3A%2F%2Ffonts.googleapis.com%2Fcss%3Ffamily%3DPermanent%2BMarker;" parent="YCwGA8IyKye3bmhu1bEr-5" vertex="1" connectable="0">
          <mxGeometry x="-0.0144" y="-4" relative="1" as="geometry">
            <mxPoint x="-50" y="14" as="offset" />
          </mxGeometry>
        </mxCell>
      </root>
    </mxGraphModel>
  </diagram>
</mxfile>
